<?xml version="1.0" encoding="UTF-8" standalone="no"?>
<!DOCTYPE svg PUBLIC "-//W3C//DTD SVG 1.1//EN" "http://www.w3.org/Graphics/SVG/1.1/DTD/svg11.dtd">
<svg width="100%" height="100%" viewBox="0 0 614 77" version="1.1" xmlns="http://www.w3.org/2000/svg" xmlns:xlink="http://www.w3.org/1999/xlink" xml:space="preserve" xmlns:serif="http://www.serif.com/" style="fill-rule:evenodd;clip-rule:evenodd;stroke-linejoin:round;stroke-miterlimit:2;">
    <g id="Layer_2-2">
        <g>
            <path d="M49.5,54.4C50.1,54.4 50.6,54.6 50.9,55.1C51.2,55.5 51.5,56 51.7,56.5C51.9,56.8 52.3,57.6 52.8,58.7C53.3,59.8 53.9,61 54.6,62.4C55.2,63.7 55.8,64.9 56.2,66C56.7,67.1 56.9,67.7 56.9,67.9C56.9,68.5 56.6,69.1 56,69.6C54.4,70.9 52.4,72 49.9,72.9C47.4,73.8 44.9,74.5 42.3,74.9C39.7,75.3 37.4,75.6 35.3,75.6C27.9,75.6 21.5,74 16.3,70.8C11,67.6 7,63.3 4.2,57.7C1.4,52.1 0,45.7 0,38.5C0,31.3 1.3,25.5 3.8,20C6.3,14.6 10.1,10.2 15,7C19.9,3.8 26,2.2 33.2,2.2C36.4,2.2 39.9,2.6 43.7,3.5C47.5,4.4 50.8,5.7 53.5,7.4C53.9,7.6 54.2,7.9 54.4,8.2C54.6,8.5 54.8,8.9 54.8,9.3C54.8,9.5 54.6,10.2 54.1,11.4C53.6,12.6 53.1,13.9 52.5,15.4C51.9,16.9 51.3,18.3 50.7,19.5C50.1,20.8 49.8,21.6 49.6,21.9C49.4,22.3 49.2,22.7 48.9,23.1C48.6,23.5 48.2,23.7 47.6,23.7C47,23.7 46.1,23.3 44.9,22.5C43.7,21.7 42.4,20.8 40.8,20C39.2,19.2 37.5,18.7 35.6,18.7C32.1,18.7 29.1,19.7 26.7,21.6C24.3,23.6 22.5,26 21.2,29C20,32 19.3,35.1 19.3,38.3C19.3,41.9 19.9,45.2 21.1,48.3C22.3,51.4 24.2,53.9 26.7,55.8C29.2,57.7 32.4,58.7 36.4,58.7C38.3,58.7 40.2,58.4 42,57.8C43.8,57.2 45.4,56.4 47.1,55.4C47.5,55.2 47.8,54.9 48.2,54.7C48.7,54.5 49.1,54.4 49.5,54.4Z" style="fill-rule:nonzero;"/>
            <path d="M66.5,5.4C66.5,3.7 67.4,2.8 69.1,2.8L83,2.8C84.7,2.8 85.6,3.7 85.6,5.4C85.6,10.9 85.6,16.5 85.5,22C85.4,27.5 85.4,33.1 85.4,38.6C85.4,44.1 85.4,49.7 85.5,55.3C85.5,60.8 85.6,66.4 85.6,71.9C85.6,73.6 84.7,74.5 83,74.5L69.1,74.5C67.4,74.5 66.5,73.6 66.5,71.9C66.5,66.4 66.5,60.8 66.6,55.3C66.7,49.8 66.7,44.2 66.7,38.6C66.7,33 66.7,27.5 66.6,22C66.5,16.5 66.5,11 66.5,5.4Z" style="fill-rule:nonzero;"/>
            <path d="M162.1,76.8C162,76.8 161.1,76.2 159.6,75C158.1,73.8 156.1,72.2 153.7,70.1C151.3,68.1 148.6,65.8 145.7,63.4C142.8,60.9 139.8,58.4 136.8,55.9C133.8,53.4 131,50.9 128.4,48.7C125.8,46.4 123.5,44.5 121.6,42.9C119.7,41.3 118.5,40.3 117.9,39.8C117.8,39.7 117.6,39.6 117.5,39.5C117.4,39.4 117.2,39.3 117,39.3C116.8,39.3 116.6,39.4 116.6,39.7C116.5,40 116.5,40.2 116.5,40.4C116.5,44.3 116.5,48.1 116.6,52C116.6,55.9 116.7,59.8 116.7,63.6L116.7,72.1C116.7,73.8 115.8,74.7 114.1,74.7L99.8,74.7C98.1,74.7 97.2,73.8 97.2,72C97.2,70.2 97.2,68.4 97.3,66.6C97.4,64.8 97.4,63 97.5,61.3C97.6,57.5 97.6,53.8 97.7,50.1C97.8,46.4 97.8,42.6 97.8,38.9C97.8,30.3 97.7,21.8 97.5,13.3C97.5,11.3 97.4,9.2 97.3,7.2C97.2,5.2 97.1,3.1 97.1,1.1C97.1,0.9 97.2,0.7 97.5,0.7C97.7,0.7 97.9,0.8 98.2,1C105.6,7.1 113,13.3 120.2,19.7C127.4,26.1 134.6,32.5 141.9,38.8C142,38.9 142.2,39 142.3,39.1C142.5,39.2 142.6,39.3 142.7,39.3C143,39.3 143.1,39.1 143.2,38.8C143.2,38.5 143.3,38.3 143.3,38.1L143.3,5.5C143.3,3.8 144.2,2.9 145.9,2.9L159.6,2.9C161.3,2.9 162.2,3.8 162.2,5.6C162.2,7.4 162.2,9.2 162.1,11C162,12.8 162,14.6 161.9,16.4C161.8,20.2 161.8,23.9 161.7,27.6C161.6,31.3 161.6,35.1 161.6,38.8C161.6,47.4 161.7,55.9 161.9,64.5C162,66.5 162,68.6 162.1,70.6C162.2,72.6 162.2,74.7 162.2,76.7C162.3,76.7 162.3,76.8 162.1,76.8Z" style="fill-rule:nonzero;"/>
            <path d="M173.7,5.4C173.7,3.7 174.6,2.8 176.3,2.8L219,2.8C220.7,2.8 221.6,3.7 221.6,5.5C221.6,6.6 221.6,7.6 221.5,8.7C221.5,9.8 221.4,10.8 221.4,11.9L221.4,14.4C221.4,15.2 221.4,16.1 221.3,16.9C221.2,18.6 220.3,19.5 218.7,19.5L193.6,19.5C193,19.5 192.7,19.8 192.7,20.3L192.8,30.3C192.8,30.8 193.1,31.1 193.6,31.1L215,31.1C216.7,31.1 217.6,32 217.6,33.7L217.6,43.4C217.6,45.1 216.7,46 215,46L193.6,46C193.1,46 192.8,46.3 192.8,46.8L192.7,57.2C192.7,57.7 193,58 193.6,58L219.9,58C221.5,58 222.4,58.8 222.5,60.5C222.6,62.3 222.7,64.2 222.7,66.2C222.7,68.2 222.8,70.1 222.8,71.9C222.8,73.7 221.9,74.6 220.2,74.6L176.3,74.6C174.6,74.6 173.7,73.7 173.7,72C173.7,70.2 173.7,68.4 173.8,66.6C173.9,64.8 173.9,63 173.9,61.2C174,57.4 174,53.6 174.1,49.9C174.1,46.1 174.2,42.4 174.2,38.6C174.2,34.8 174.2,31.1 174.1,27.3C174.1,23.5 174,19.8 173.9,16C173.9,14.2 173.8,12.4 173.8,10.6C173.7,9 173.7,7.2 173.7,5.4Z" style="fill-rule:nonzero;"/>
            <path d="M231.9,5.5C231.9,3.7 232.8,2.8 234.5,2.8L258.6,2.8C262.7,2.8 266.7,3.3 270.5,4.2C274.3,5.1 277.8,6.6 280.8,8.6C283.8,10.6 286.2,13.2 288,16.4C289.8,19.6 290.7,23.6 290.7,28.3C290.7,33.9 289.5,38.7 287,42.5C284.5,46.4 281.2,49.3 276.9,51.3C272.6,53.3 267.8,54.3 262.5,54.3L251.9,54.3C251.4,54.3 251.1,54.6 251.1,55.2L250.9,72.1C250.9,73.8 250,74.7 248.3,74.7L234.4,74.7C232.7,74.7 231.8,73.8 231.8,72C231.8,70.2 231.8,68.3 231.9,66.5C232,64.7 232,62.8 232.1,61C232.2,57.3 232.2,53.6 232.3,49.9C232.3,46.2 232.4,42.5 232.4,38.8C232.4,35.1 232.4,31.4 232.3,27.7C232.3,24 232.2,20.3 232.1,16.6C232.1,14.8 232,12.9 231.9,11.1L231.9,5.5ZM251.1,37.6L261.5,37.6C263.2,37.6 264.8,37.3 266.4,36.6C268,35.9 269.3,34.9 270.3,33.6C271.3,32.3 271.9,30.7 271.9,28.9C271.9,28.6 271.8,28.2 271.7,27.7C271.6,27.2 271.5,26.8 271.4,26.5C270.7,24.2 269.4,22.5 267.6,21.3C265.8,20.1 263.7,19.6 261.4,19.6L251.1,19.6C251.1,22.6 251.2,25.6 251.2,28.7C251.2,31.8 251.1,34.6 251.1,37.6Z" style="fill-rule:nonzero;"/>
            <path d="M361.7,2.8C363.4,2.8 364.3,3.7 364.3,5.5C364.3,7.3 364.3,9.1 364.2,10.9C364.1,12.7 364.1,14.5 364,16.3C363.9,20.1 363.9,23.8 363.8,27.6C363.7,31.4 363.7,35.1 363.7,38.9C363.7,42.7 363.7,46.4 363.8,50.1C363.8,53.8 363.9,57.6 364,61.3C364,63.1 364.1,64.9 364.2,66.7C364.3,68.5 364.3,70.3 364.3,72.1C364.3,73.9 363.4,74.8 361.7,74.8L347.8,74.8C346.2,74.8 345.4,73.9 345.2,72.2C345.1,70.8 345.1,69.4 345.1,67.9L345.1,63.5C345.1,60.9 345,58.3 345,55.7C345,53.1 344.9,50.5 344.9,47.9C344.9,47.4 344.6,47.1 344.1,47.1L319.1,47.1C318.6,47.1 318.3,47.4 318.3,47.9L318.3,55.7C318.3,58.3 318.2,60.9 318.2,63.5C318.2,64.9 318.2,66.4 318.3,67.8C318.3,69.3 318.3,70.7 318.2,72.1C318.1,73.8 317.2,74.7 315.6,74.7L301.7,74.7C300,74.7 299.1,73.8 299.1,72C299.1,70.2 299.1,68.4 299.2,66.6C299.3,64.8 299.3,63 299.4,61.2C299.5,57.4 299.5,53.7 299.6,50C299.7,46.3 299.7,42.5 299.7,38.8C299.7,35.1 299.7,31.3 299.6,27.5C299.6,23.7 299.5,20 299.4,16.2C299.4,14.4 299.3,12.6 299.2,10.8C299.1,9 299.1,7.2 299.1,5.4C299.1,3.6 300,2.7 301.7,2.7L315.6,2.7C316.5,2.7 317.1,2.9 317.5,3.3C317.9,3.7 318.1,4.3 318.2,5.2C318.3,6.4 318.4,7.7 318.3,9C318.2,10.3 318.2,11.6 318.3,12.9C318.3,15.6 318.4,18.4 318.4,21.1L318.4,29.3C318.4,29.8 318.7,30.1 319.2,30.1L344.2,30.1C344.7,30.1 345,29.8 345,29.3L345,21.1C345,18.4 345,15.7 345.1,12.9L345.1,9C345,7.7 345.1,6.4 345.2,5.2C345.3,4.4 345.5,3.7 345.9,3.3C346.3,2.9 346.9,2.7 347.8,2.7L361.7,2.7L361.7,2.8Z" style="fill-rule:nonzero;"/>
            <path d="M477.2,2.8C482.9,2.8 488,3.6 492.5,5.2C497,6.8 500.5,9.5 503.1,13.2C505.7,16.9 506.9,21.9 506.9,28.2C506.9,33 506,37.3 504.1,41.4C502.2,45.4 499.2,48.6 495,51.1C494.6,51.3 494.4,51.6 494.4,51.8C494.4,51.9 494.8,52.6 495.7,53.8C496.5,55 497.6,56.4 498.9,58.1C500.2,59.8 501.5,61.5 502.8,63.2C504.1,64.9 505.3,66.5 506.3,67.8C507.3,69.1 508,70 508.3,70.4C508.6,70.7 508.8,71.1 509.1,71.6C509.4,72.1 509.5,72.5 509.5,73C509.5,73.7 509.1,74.2 508.2,74.3C507.4,74.5 506.7,74.5 506.2,74.5L490.6,74.5C489.8,74.5 489,74.1 488.4,73.3C487.9,72.6 487.4,71.8 486.9,71C486.4,70.2 485.9,69.4 485.4,68.6C483.9,66.3 482.5,63.9 481,61.5C479.6,59.1 478,56.7 476.5,54.4C476.3,54.1 476.1,54 475.8,54L473.1,54C472.5,54 472.2,54.3 472.2,54.9L472.2,71.9C472.2,73.6 471.3,74.5 469.6,74.5L455.7,74.5C454,74.5 453.1,73.6 453.1,71.8C453.1,70 453.1,68.2 453.2,66.4C453.3,64.6 453.3,62.8 453.4,61C453.5,57.2 453.5,53.5 453.6,49.7L453.6,27.2C453.6,23.5 453.5,19.7 453.4,16C453.4,14.2 453.3,12.4 453.2,10.6C453.1,8.8 453.1,7 453.1,5.2C453.1,3.4 454,2.5 455.7,2.5L477.2,2.5L477.2,2.8ZM479.5,37.6C482,37.6 484,36.7 485.3,35C486.6,33.3 487.4,31.2 487.4,28.9C487.4,26.6 486.7,24.4 485.4,22.4C484.1,20.5 482.1,19.5 479.5,19.5L472.2,19.5C472.2,22.5 472.3,25.5 472.3,28.6L472.3,37.7L479.5,37.7L479.5,37.6Z" style="fill-rule:nonzero;"/>
            <path d="M518.9,5.4C518.9,3.7 519.8,2.8 521.5,2.8L535.4,2.8C537.1,2.8 538,3.7 538,5.4C538,10.9 538,16.5 537.9,22C537.8,27.5 537.8,33.1 537.8,38.6C537.8,44.1 537.8,49.7 537.9,55.3C537.9,60.8 538,66.4 538,71.9C538,73.6 537.1,74.5 535.4,74.5L521.5,74.5C519.8,74.5 518.9,73.6 518.9,71.9C518.9,66.4 518.9,60.8 519,55.3C519.1,49.8 519.1,44.2 519.1,38.6C519.1,33 519.1,27.5 519,22C518.9,16.5 518.9,11 518.9,5.4Z" style="fill-rule:nonzero;"/>
            <path d="M408.2,1.1C387.7,1.1 371.1,17.7 371.1,38.2C371.1,58.7 387.7,75.3 408.2,75.3C428.7,75.3 445.3,58.7 445.3,38.2C445.3,17.7 428.7,1.1 408.2,1.1ZM408.2,12C412.5,12 416,15.5 416,19.8C416,24.1 412.5,27.6 408.2,27.6C403.9,27.6 400.4,24.1 400.4,19.8C400.4,15.5 403.9,12 408.2,12ZM383.2,32.3C383.2,28 386.7,24.5 391,24.5C395.3,24.5 398.8,28 398.8,32.3C398.8,36.6 395.3,40.1 391,40.1C386.7,40.1 383.2,36.6 383.2,32.3ZM397.5,60.3C393.2,60.3 389.7,56.8 389.7,52.5C389.7,48.2 393.2,44.7 397.5,44.7C401.8,44.7 405.3,48.2 405.3,52.5C405.3,56.8 401.8,60.3 397.5,60.3ZM408.2,40.5C406.8,40.5 405.6,39.3 405.6,37.9C405.6,36.5 406.8,35.3 408.2,35.3C409.6,35.3 410.8,36.5 410.8,37.9C410.7,39.3 409.6,40.5 408.2,40.5ZM418.8,60.3C414.5,60.3 411,56.8 411,52.5C411,48.2 414.5,44.7 418.8,44.7C423.1,44.7 426.6,48.2 426.6,52.5C426.6,56.8 423.1,60.3 418.8,60.3ZM425.4,40.1C421.1,40.1 417.6,36.6 417.6,32.3C417.6,28 421.1,24.5 425.4,24.5C429.7,24.5 433.2,28 433.2,32.3C433.2,36.6 429.7,40.1 425.4,40.1Z" style="fill:rgb(202,138,4);fill-rule:nonzero;"/>
        </g>
        <path d="M548.6,74.6C548,74.6 547.4,74.5 546.7,74.3C546,74.1 545.7,73.6 545.7,72.8C545.7,72.4 545.8,72.1 545.9,71.8C546,71.5 546.2,71.2 546.3,70.9C549.4,64.5 552.4,58.1 555.4,51.7C558.4,45.3 561.4,38.9 564.3,32.4C566.7,27.1 569.1,21.8 571.4,16.4C573.7,11.1 576.2,5.8 578.7,0.5C578.9,0.2 579.1,-0 579.4,-0C579.7,-0 580,0.2 580.1,0.5C582.6,5.7 585.1,11 587.4,16.4C589.7,21.7 592.1,27.1 594.5,32.4C597.5,38.9 600.4,45.3 603.4,51.7C606.4,58.1 609.4,64.5 612.5,70.9C612.7,71.2 612.8,71.5 612.9,71.8C613,72.1 613.1,72.5 613.1,72.8C613.1,73.6 612.8,74.1 612.1,74.3C611.4,74.5 610.8,74.6 610.2,74.6L594,74.6C593.3,74.6 592.8,74.5 592.5,74.2C592.2,73.9 591.9,73.5 591.6,72.9C591,71.5 590.4,70.1 590,68.6C589.6,67.1 589.1,65.7 588.5,64.2C588.3,63.8 588.1,63.6 587.7,63.6L568.2,63.6C567.9,63.6 567.7,63.7 567.5,64L567.5,64.1C567.5,64.2 567.5,64.2 567.4,64.3C567,65.3 565.4,69.3 565,70.3C564.8,70.7 564.7,71.1 564.5,71.6C564.3,72.1 564.1,72.5 563.9,72.9C563.6,73.4 563.3,73.8 563,74.1C562.7,74.4 562.2,74.5 561.5,74.5L548.6,74.5L548.6,74.6ZM573.3,49.5L583.3,49.5C582.5,47.2 581.7,44.9 581,42.7C580.2,40.4 579.4,38.2 578.7,35.9C577.8,38.1 576.9,40.4 576.1,42.7C575.1,44.9 574.2,47.2 573.3,49.5Z" style="fill-rule:nonzero;"/>
    </g>
</svg>
