<?xml version="1.0" encoding="UTF-8" standalone="no"?>
<!DOCTYPE svg PUBLIC "-//W3C//DTD SVG 1.1//EN" "http://www.w3.org/Graphics/SVG/1.1/DTD/svg11.dtd">
<svg width="100%" height="100%" viewBox="0 0 50 50" version="1.1" xmlns="http://www.w3.org/2000/svg" xmlns:xlink="http://www.w3.org/1999/xlink" xml:space="preserve" xmlns:serif="http://www.serif.com/" style="fill-rule:evenodd;clip-rule:evenodd;stroke-linejoin:round;stroke-miterlimit:2;">
    <g transform="matrix(0.644125,0,0,0.644125,-238.405,0.00802699)">
        <path d="M408.2,1.1C387.7,1.1 371.1,17.7 371.1,38.2C371.1,58.7 387.7,75.3 408.2,75.3C428.7,75.3 445.3,58.7 445.3,38.2C445.3,17.7 428.7,1.1 408.2,1.1ZM408.2,12C412.5,12 416,15.5 416,19.8C416,24.1 412.5,27.6 408.2,27.6C403.9,27.6 400.4,24.1 400.4,19.8C400.4,15.5 403.9,12 408.2,12ZM383.2,32.3C383.2,28 386.7,24.5 391,24.5C395.3,24.5 398.8,28 398.8,32.3C398.8,36.6 395.3,40.1 391,40.1C386.7,40.1 383.2,36.6 383.2,32.3ZM397.5,60.3C393.2,60.3 389.7,56.8 389.7,52.5C389.7,48.2 393.2,44.7 397.5,44.7C401.8,44.7 405.3,48.2 405.3,52.5C405.3,56.8 401.8,60.3 397.5,60.3ZM408.2,40.5C406.8,40.5 405.6,39.3 405.6,37.9C405.6,36.5 406.8,35.3 408.2,35.3C409.6,35.3 410.8,36.5 410.8,37.9C410.7,39.3 409.6,40.5 408.2,40.5ZM418.8,60.3C414.5,60.3 411,56.8 411,52.5C411,48.2 414.5,44.7 418.8,44.7C423.1,44.7 426.6,48.2 426.6,52.5C426.6,56.8 423.1,60.3 418.8,60.3ZM425.4,40.1C421.1,40.1 417.6,36.6 417.6,32.3C417.6,28 421.1,24.5 425.4,24.5C429.7,24.5 433.2,28 433.2,32.3C433.2,36.6 429.7,40.1 425.4,40.1Z" style="fill:rgb(202,138,4);fill-rule:nonzero;"/>
    </g>
</svg>
